<svg xmlns="http://www.w3.org/2000/svg" xmlns:xlink="http://www.w3.org/1999/xlink" width="40" zoomAndPan="magnify" viewBox="0 0 30 30.000001" height="40" preserveAspectRatio="xMidYMid meet" version="1.0"><defs><clipPath id="id1"><path d="M 8 1.460938 L 19 1.460938 L 19 14 L 8 14 Z M 8 1.460938 " clip-rule="nonzero"/></clipPath><clipPath id="id2"><path d="M 2.824219 8 L 25 8 L 25 27.589844 L 2.824219 27.589844 Z M 2.824219 8 " clip-rule="nonzero"/></clipPath><clipPath id="id3"><path d="M 5 8 L 27.5 8 L 27.5 27.589844 L 5 27.589844 Z M 5 8 " clip-rule="nonzero"/></clipPath><clipPath id="id4"><path d="M 10 1.460938 L 22 1.460938 L 22 14 L 10 14 Z M 10 1.460938 " clip-rule="nonzero"/></clipPath></defs><g clip-path="url(#id1)"><path fill="#108ac4" d="M 18.28125 13.246094 C 17.9375 13.246094 17.660156 12.96875 17.660156 12.628906 L 17.660156 6.828125 C 17.660156 4.546875 15.777344 2.6875 13.46875 2.6875 C 11.15625 2.6875 9.273438 4.546875 9.273438 6.828125 L 9.273438 12.628906 C 9.273438 12.96875 8.996094 13.246094 8.652344 13.246094 C 8.308594 13.246094 8.027344 12.96875 8.027344 12.628906 L 8.027344 6.828125 C 8.027344 3.867188 10.46875 1.457031 13.46875 1.457031 C 16.464844 1.457031 18.90625 3.867188 18.90625 6.828125 L 18.90625 12.628906 C 18.90625 12.96875 18.628906 13.246094 18.28125 13.246094 " fill-opacity="1" fill-rule="nonzero"/></g><g clip-path="url(#id2)"><path fill="#7564ab" d="M 24.996094 26.097656 C 24.996094 26.921875 24.3125 27.59375 23.480469 27.59375 L 4.378906 27.59375 C 3.546875 27.59375 2.867188 26.921875 2.867188 26.097656 L 2.882812 10.253906 C 2.882812 9.433594 3.5625 8.761719 4.394531 8.761719 L 23.121094 8.761719 C 23.953125 8.761719 24.632812 9.433594 24.632812 10.253906 L 24.996094 26.097656 " fill-opacity="1" fill-rule="nonzero"/></g><g clip-path="url(#id3)"><path fill="#ffffff" d="M 27.472656 26.097656 C 27.472656 26.921875 26.789062 27.59375 25.957031 27.59375 L 6.855469 27.59375 C 6.023438 27.59375 5.339844 26.921875 5.339844 26.097656 L 5.359375 10.253906 C 5.359375 9.433594 6.039062 8.761719 6.871094 8.761719 L 25.597656 8.761719 C 26.429688 8.761719 27.109375 9.433594 27.109375 10.253906 L 27.472656 26.097656 " fill-opacity="1" fill-rule="nonzero"/></g><path fill="#7564ab" d="M 12.777344 12.628906 C 12.777344 13.417969 12.128906 14.058594 11.332031 14.058594 C 10.53125 14.058594 9.882812 13.417969 9.882812 12.628906 C 9.882812 11.839844 10.53125 11.203125 11.332031 11.203125 C 12.128906 11.203125 12.777344 11.839844 12.777344 12.628906 " fill-opacity="1" fill-rule="nonzero"/><path fill="#7564ab" d="M 22.585938 12.628906 C 22.585938 13.417969 21.9375 14.058594 21.140625 14.058594 C 20.339844 14.058594 19.691406 13.417969 19.691406 12.628906 C 19.691406 11.839844 20.339844 11.203125 21.140625 11.203125 C 21.9375 11.203125 22.585938 11.839844 22.585938 12.628906 " fill-opacity="1" fill-rule="nonzero"/><g clip-path="url(#id4)"><path fill="#108ac4" d="M 21.050781 13.246094 C 20.707031 13.246094 20.425781 12.96875 20.425781 12.628906 L 20.425781 6.828125 C 20.425781 4.546875 18.546875 2.6875 16.234375 2.6875 C 13.921875 2.6875 12.042969 4.546875 12.042969 6.828125 L 12.042969 12.628906 C 12.042969 12.96875 11.761719 13.246094 11.417969 13.246094 C 11.074219 13.246094 10.796875 12.96875 10.796875 12.628906 L 10.796875 6.828125 C 10.796875 3.867188 13.234375 1.457031 16.234375 1.457031 C 19.234375 1.457031 21.675781 3.867188 21.675781 6.828125 L 21.675781 12.628906 C 21.675781 12.96875 21.394531 13.246094 21.050781 13.246094 " fill-opacity="1" fill-rule="nonzero"/></g><path fill="#ffffff" d="M 22.289062 17.460938 L 22.050781 17.449219 C 21.652344 17.433594 21.316406 17.703125 21.300781 18.054688 L 21.207031 20.050781 L 21.207031 20.046875 L 20.941406 19.585938 L 18.5625 15.421875 C 18.394531 15.128906 18.019531 15.027344 17.726562 15.191406 L 17.546875 15.289062 C 17.253906 15.457031 17.148438 15.824219 17.316406 16.117188 L 18.457031 18.109375 C 18.3125 18.078125 18.160156 18.097656 18.023438 18.171875 L 17.84375 18.273438 C 17.550781 18.4375 17.445312 18.804688 17.613281 19.097656 C 17.445312 18.804688 17.074219 18.703125 16.777344 18.867188 L 16.597656 18.964844 C 16.304688 19.128906 16.199219 19.5 16.367188 19.792969 C 16.199219 19.5 15.828125 19.398438 15.53125 19.5625 L 15.355469 19.660156 C 15.058594 19.824219 14.957031 20.195312 15.121094 20.484375 L 16.136719 22.261719 C 16.136719 22.261719 17.480469 24.6875 18.042969 25.355469 C 18.566406 25.980469 18.679688 25.824219 18.910156 26.050781 C 19.246094 26.382812 19.570312 26.660156 19.867188 26.496094 L 22.667969 24.9375 C 22.964844 24.773438 22.953125 24.332031 22.777344 23.894531 C 22.714844 23.734375 22.628906 23.289062 22.671875 23.214844 C 22.671875 23.214844 22.753906 22.917969 22.75 22.867188 L 22.976562 18.132812 C 22.992188 17.78125 22.683594 17.480469 22.289062 17.460938 " fill-opacity="1" fill-rule="nonzero"/></svg>